Patient4_TMGait_0pt2_02_right_25_EMG.mot
version=1
nRows=13
nColumns=33
inDegrees=no
endheader
time	1LAddLong	2LGlutMax	3LGlutMed	4LIliopsoas	5LSemiMemb	6LBicFemLong	7LRecFem	8LVastMed	9LVastLat	10LGasMed	11LTibAnt	12lTibPost	13LPeroneusLong	14LSol	15LExtDigLong	16LFlexDigLong	17RAddLong	18RGlutMax	19RGlutMed	20RIliopsoas	21RSemiMemb	22RBicFemLong	23RRecFem	24RVastMed	25RVastLat	26RGasMed	27RTibAnt	28RTibPost	29RPeroneusLong	30RSol	31RExtDigLong	32RFlexDigLong
57.373	0.001373	-0.13001	-0.052338	0.004425	0.010223	-0.025635	0.003357	0.011597	-0.031738	-0.032806	0.15717	-0.015411	0.10727	-0.15808	-0.040283	0.011444	-0.069275	-0.12848	-0.32638	0.001068	-0.012207	-0.055237	-0.041504	-0.048828	-0.027618	0.000153	0.18616	-0.00351	-0.13504	-0.09491	-0.000916	0.002594
57.374	0.004578	-0.034332	0	0.014801	0.022583	-0.092468	0.078583	0.002441	-0.044556	-0.011444	-0.094147	-0.010223	0.32394	-0.16602	-0.09613	0	-0.045319	-0.1239	0.003967	-0.013275	-0.000305	-0.036316	-0.055389	-0.12299	-0.045929	-0.002899	0.35095	-0.004578	-0.15747	-0.091705	0.001526	0
57.375	0.019531	-0.022583	-0.001984	0.015564	-0.050507	-0.072632	0.085297	-0.004883	0.018158	-0.023193	-0.24307	-0.013428	0.66803	-0.044098	-0.068665	-0.004578	-0.033417	-0.070801	0.62607	0.014343	0.012817	-0.012512	-0.19379	-0.10559	-0.008545	0.007324	0.47211	-0.005341	-0.14374	-0.079041	0.001373	-0.000305
57.376	0.008087	-0.1622	-0.010834	0.030212	-0.049438	-0.053406	0.18601	0.005798	0.086212	-0.021973	-0.21011	-0.002441	0.11444	-0.085754	-0.11185	0.001678	-0.014954	-0.099335	-0.024719	0.1294	0.019531	-0.010681	-0.28595	-0.081329	-0.010681	0.004883	0.066071	-0.004425	-0.12619	-0.029755	-0.001984	0.002289
57.377	0.012054	-0.18387	-0.069427	0.027008	-0.019226	-0.2356	0.27145	0.007477	0.18829	-0.048218	-0.11383	-0.010681	-0.59143	0.018005	-0.079346	-0.000916	-0.015411	-0.083008	-0.22751	0.24033	0.026093	0.00824	-0.32059	-0.080719	-0.011902	0.012054	-0.3566	-0.006409	-0.092163	-0.013885	0.000305	0.007324
57.378	0.00824	-0.14358	-0.12787	0.032501	0.037384	-0.224	0.23804	0.001068	0.24857	0.06012	-0.03006	-0.018158	-0.44907	-0.045319	-0.097351	0.001831	-0.022583	-0.001526	-0.017548	0.13641	0.040894	0.000305	-0.19073	-0.06073	0.024414	0.01297	-0.32806	-0.01236	-0.03891	0.049591	-0.004425	0.013733
57.379	0.01358	-0.091705	-0.21423	0.001068	0.063934	-0.028229	0.13825	0.006714	0.18173	0.1767	0.001526	-0.015411	-0.1181	0.067444	0.094452	0.011292	-0.02533	-0.029755	0.083313	-0.05661	0.065918	0.029144	-0.11139	-0.11429	0.013275	0.010986	-0.036011	-0.006104	-0.042572	-0.032196	-0.002441	0.005493
57.38	0.016632	-0.05722	-0.48843	0.012512	0.045776	0.045319	0.058441	-0.009308	0.14984	0.1799	-0.026245	-0.012207	-0.11826	-0.0177	0.14069	0.009308	-0.005493	-0.019989	0.027924	-0.22095	0.065308	0.027924	-0.085144	-0.067749	0.012665	0.014343	0.16922	-0.002899	-0.073853	-0.08728	-0.001831	0.000458
57.381	0.018616	-0.025787	-0.32745	0.011139	0.039063	0.22537	-0.024414	-0.018921	0.06485	0.026703	-0.037079	-0.010223	0.32379	-0.17517	0.062714	0.018005	-0.015106	-0.000153	-0.20386	-0.21973	0.047607	0.011292	-0.014648	-0.028839	0.019531	0.012665	-0.34393	-0.006256	-0.041046	-0.088959	-0.00412	0.008698
57.382	0.002289	-0.062103	-0.051727	0.023499	0.051575	0.48447	-0.097351	-0.009613	0.006256	-0.15656	-0.091553	-0.005188	0.23285	-0.21683	0.039215	0.013733	-0.019379	0.008698	-0.48126	-0.16144	0.036774	0.006866	-0.021362	0.010834	0.01358	0.012817	0.11673	-0.006409	-0.21133	0.003357	-0.002594	0.002136
57.383	0.000763	-0.20386	-0.090485	0.009308	0.047913	0.6337	-0.35492	-0.007629	0.075989	-0.21912	-0.077667	-0.006104	0.076294	-0.44022	0.008545	0.013428	-0.011902	0.009155	-0.17914	0.037537	0.041962	0	-0.025635	0.009308	0.020447	0.011597	0.39215	-0.002747	-0.22934	-0.036011	-0.002747	0.005188
57.384	0.007019	-0.21606	0.16739	-0.003204	0.052948	0.49225	-0.33981	-0.002136	0.16266	-0.11078	-0.052795	-0.014343	0.014038	-0.54825	-0.006104	0.007172	-0.008698	0.041809	0.00412	-0.063629	0.034027	-0.001526	-0.083313	-0.003815	0.016327	0.01297	0.24155	-0.001984	-0.12054	-0.006256	-0.002747	-0.000153
57.385	0.005341	-0.18417	0.3122	-0.004272	0.059662	0.014648	-0.16113	-0.012817	0.17364	-0.1564	0.012054	-0.007935	-0.009613	-0.45639	0.020294	0.0177	0.002899	0.10284	0.58914	-0.28183	0.027771	-0.008087	-0.10712	-0.051422	0.032043	0.022125	-0.18967	-0.005341	0.012207	-0.009003	-0.007477	-0.005188
